<mxfile host="Electron" modified="2023-10-28T14:23:47.999Z" agent="Mozilla/5.0 (X11; Linux x86_64) AppleWebKit/537.36 (KHTML, like Gecko) draw.io/22.0.3 Chrome/114.0.5735.289 Electron/25.8.4 Safari/537.36" etag="SZfA4ektq_64LE_AR0DL" version="22.0.3" type="device">
  <diagram name="Page-1" id="QRZzMZy6iaiuIOIdIQc0">
    <mxGraphModel dx="2310" dy="1405" grid="1" gridSize="10" guides="1" tooltips="1" connect="1" arrows="1" fold="1" page="1" pageScale="1" pageWidth="827" pageHeight="1169" math="0" shadow="0">
      <root>
        <mxCell id="0" />
        <mxCell id="1" parent="0" />
        <mxCell id="s50cgllbeoJ9t7GgSWpV-45" value="" style="group" parent="1" vertex="1" connectable="0">
          <mxGeometry x="580" y="270" width="141" height="80" as="geometry" />
        </mxCell>
        <mxCell id="s50cgllbeoJ9t7GgSWpV-43" value="has" style="rhombus;whiteSpace=wrap;html=1;" parent="s50cgllbeoJ9t7GgSWpV-45" vertex="1">
          <mxGeometry width="141" height="80" as="geometry" />
        </mxCell>
        <mxCell id="s50cgllbeoJ9t7GgSWpV-56" value="" style="group" parent="1" vertex="1" connectable="0">
          <mxGeometry x="380" y="90" width="120" height="80" as="geometry" />
        </mxCell>
        <mxCell id="s50cgllbeoJ9t7GgSWpV-57" value="" style="ellipse;whiteSpace=wrap;html=1;" parent="s50cgllbeoJ9t7GgSWpV-56" vertex="1">
          <mxGeometry width="120" height="80" as="geometry" />
        </mxCell>
        <mxCell id="s50cgllbeoJ9t7GgSWpV-58" value="Id" style="text;html=1;strokeColor=none;fillColor=none;align=center;verticalAlign=middle;whiteSpace=wrap;rounded=0;" parent="s50cgllbeoJ9t7GgSWpV-56" vertex="1">
          <mxGeometry x="30" y="25" width="60" height="30" as="geometry" />
        </mxCell>
        <mxCell id="s50cgllbeoJ9t7GgSWpV-62" value="" style="group" parent="1" vertex="1" connectable="0">
          <mxGeometry x="80" y="150" width="120" height="80" as="geometry" />
        </mxCell>
        <mxCell id="s50cgllbeoJ9t7GgSWpV-63" value="" style="ellipse;whiteSpace=wrap;html=1;" parent="s50cgllbeoJ9t7GgSWpV-62" vertex="1">
          <mxGeometry width="120" height="80" as="geometry" />
        </mxCell>
        <mxCell id="s50cgllbeoJ9t7GgSWpV-64" value="Season Number" style="text;html=1;strokeColor=none;fillColor=none;align=center;verticalAlign=middle;whiteSpace=wrap;rounded=0;" parent="s50cgllbeoJ9t7GgSWpV-62" vertex="1">
          <mxGeometry x="30" y="25" width="60" height="30" as="geometry" />
        </mxCell>
        <mxCell id="s50cgllbeoJ9t7GgSWpV-71" value="" style="group" parent="1" vertex="1" connectable="0">
          <mxGeometry x="460" y="170" width="120" height="80" as="geometry" />
        </mxCell>
        <mxCell id="s50cgllbeoJ9t7GgSWpV-72" value="" style="ellipse;whiteSpace=wrap;html=1;" parent="s50cgllbeoJ9t7GgSWpV-71" vertex="1">
          <mxGeometry width="120" height="80" as="geometry" />
        </mxCell>
        <mxCell id="s50cgllbeoJ9t7GgSWpV-73" value="Start Date" style="text;html=1;strokeColor=none;fillColor=none;align=center;verticalAlign=middle;whiteSpace=wrap;rounded=0;" parent="s50cgllbeoJ9t7GgSWpV-71" vertex="1">
          <mxGeometry x="30" y="25" width="60" height="30" as="geometry" />
        </mxCell>
        <mxCell id="s50cgllbeoJ9t7GgSWpV-67" value="" style="group" parent="1" vertex="1" connectable="0">
          <mxGeometry x="220" y="90" width="120" height="80" as="geometry" />
        </mxCell>
        <mxCell id="s50cgllbeoJ9t7GgSWpV-68" value="" style="ellipse;whiteSpace=wrap;html=1;" parent="s50cgllbeoJ9t7GgSWpV-67" vertex="1">
          <mxGeometry width="120" height="80" as="geometry" />
        </mxCell>
        <mxCell id="s50cgllbeoJ9t7GgSWpV-69" value="End Date" style="text;html=1;strokeColor=none;fillColor=none;align=center;verticalAlign=middle;whiteSpace=wrap;rounded=0;" parent="s50cgllbeoJ9t7GgSWpV-67" vertex="1">
          <mxGeometry x="30" y="25" width="60" height="30" as="geometry" />
        </mxCell>
        <mxCell id="U37n3amN9M7pyMKKjLKV-16" value="" style="endArrow=none;html=1;rounded=0;exitX=0;exitY=0.25;exitDx=0;exitDy=0;" edge="1" parent="1" source="s50cgllbeoJ9t7GgSWpV-46" target="s50cgllbeoJ9t7GgSWpV-63">
          <mxGeometry width="50" height="50" relative="1" as="geometry">
            <mxPoint x="180" y="320" as="sourcePoint" />
            <mxPoint x="230" y="270" as="targetPoint" />
          </mxGeometry>
        </mxCell>
        <mxCell id="U37n3amN9M7pyMKKjLKV-17" value="" style="endArrow=none;html=1;rounded=0;exitX=0.25;exitY=0;exitDx=0;exitDy=0;" edge="1" parent="1" source="s50cgllbeoJ9t7GgSWpV-46" target="s50cgllbeoJ9t7GgSWpV-68">
          <mxGeometry width="50" height="50" relative="1" as="geometry">
            <mxPoint x="293" y="330" as="sourcePoint" />
            <mxPoint x="208" y="225" as="targetPoint" />
          </mxGeometry>
        </mxCell>
        <mxCell id="U37n3amN9M7pyMKKjLKV-18" value="" style="endArrow=none;html=1;rounded=0;exitX=0.75;exitY=0;exitDx=0;exitDy=0;entryX=0.358;entryY=0.975;entryDx=0;entryDy=0;entryPerimeter=0;" edge="1" parent="1" source="s50cgllbeoJ9t7GgSWpV-46" target="s50cgllbeoJ9t7GgSWpV-57">
          <mxGeometry width="50" height="50" relative="1" as="geometry">
            <mxPoint x="323" y="300" as="sourcePoint" />
            <mxPoint x="304" y="120" as="targetPoint" />
          </mxGeometry>
        </mxCell>
        <mxCell id="U37n3amN9M7pyMKKjLKV-19" value="" style="endArrow=none;html=1;rounded=0;exitX=0;exitY=1;exitDx=0;exitDy=0;entryX=1;entryY=0.25;entryDx=0;entryDy=0;" edge="1" parent="1" source="s50cgllbeoJ9t7GgSWpV-72" target="s50cgllbeoJ9t7GgSWpV-46">
          <mxGeometry width="50" height="50" relative="1" as="geometry">
            <mxPoint x="333" y="310" as="sourcePoint" />
            <mxPoint x="314" y="130" as="targetPoint" />
          </mxGeometry>
        </mxCell>
        <mxCell id="U37n3amN9M7pyMKKjLKV-27" value="" style="endArrow=none;html=1;rounded=0;exitX=1;exitY=0.5;exitDx=0;exitDy=0;endFill=0;startArrow=ERone;startFill=0;" edge="1" parent="1" source="s50cgllbeoJ9t7GgSWpV-46">
          <mxGeometry width="50" height="50" relative="1" as="geometry">
            <mxPoint x="630" y="350" as="sourcePoint" />
            <mxPoint x="580" y="310" as="targetPoint" />
          </mxGeometry>
        </mxCell>
        <mxCell id="U37n3amN9M7pyMKKjLKV-28" value="" style="endArrow=ERoneToMany;html=1;rounded=0;exitX=1;exitY=0.5;exitDx=0;exitDy=0;endFill=0;startArrow=none;startFill=0;" edge="1" parent="1" source="s50cgllbeoJ9t7GgSWpV-43" target="s50cgllbeoJ9t7GgSWpV-47">
          <mxGeometry width="50" height="50" relative="1" as="geometry">
            <mxPoint x="415" y="320" as="sourcePoint" />
            <mxPoint x="590" y="320" as="targetPoint" />
          </mxGeometry>
        </mxCell>
        <mxCell id="s50cgllbeoJ9t7GgSWpV-51" value="" style="group;fontStyle=0" parent="1" vertex="1" connectable="0">
          <mxGeometry x="851" y="280" width="120" height="60" as="geometry" />
        </mxCell>
        <mxCell id="s50cgllbeoJ9t7GgSWpV-47" value="" style="rounded=0;whiteSpace=wrap;html=1;fontStyle=0" parent="s50cgllbeoJ9t7GgSWpV-51" vertex="1">
          <mxGeometry width="120" height="60" as="geometry" />
        </mxCell>
        <mxCell id="s50cgllbeoJ9t7GgSWpV-50" value="Episode" style="text;html=1;strokeColor=none;fillColor=none;align=center;verticalAlign=middle;whiteSpace=wrap;rounded=0;fontStyle=0" parent="s50cgllbeoJ9t7GgSWpV-51" vertex="1">
          <mxGeometry x="30" y="15" width="60" height="30" as="geometry" />
        </mxCell>
        <mxCell id="U37n3amN9M7pyMKKjLKV-1" value="" style="endArrow=none;html=1;rounded=0;fontStyle=0" edge="1" parent="1" source="s50cgllbeoJ9t7GgSWpV-47" target="s50cgllbeoJ9t7GgSWpV-99">
          <mxGeometry width="50" height="50" relative="1" as="geometry">
            <mxPoint x="750" y="350" as="sourcePoint" />
            <mxPoint x="680" y="180" as="targetPoint" />
          </mxGeometry>
        </mxCell>
        <mxCell id="U37n3amN9M7pyMKKjLKV-3" value="" style="endArrow=none;html=1;rounded=0;exitX=1;exitY=0.5;exitDx=0;exitDy=0;fontStyle=0" edge="1" parent="1" source="s50cgllbeoJ9t7GgSWpV-47" target="s50cgllbeoJ9t7GgSWpV-104">
          <mxGeometry width="50" height="50" relative="1" as="geometry">
            <mxPoint x="731" y="300" as="sourcePoint" />
            <mxPoint x="669" y="225" as="targetPoint" />
          </mxGeometry>
        </mxCell>
        <mxCell id="U37n3amN9M7pyMKKjLKV-4" value="" style="endArrow=none;html=1;rounded=0;entryX=0.25;entryY=0;entryDx=0;entryDy=0;fontStyle=0" edge="1" parent="1" source="s50cgllbeoJ9t7GgSWpV-94" target="s50cgllbeoJ9t7GgSWpV-47">
          <mxGeometry width="50" height="50" relative="1" as="geometry">
            <mxPoint x="761" y="300" as="sourcePoint" />
            <mxPoint x="780" y="290" as="targetPoint" />
          </mxGeometry>
        </mxCell>
        <mxCell id="s50cgllbeoJ9t7GgSWpV-96" value="" style="group;fontStyle=0" parent="1" vertex="1" connectable="0">
          <mxGeometry x="1010" y="530" width="120" height="80" as="geometry" />
        </mxCell>
        <mxCell id="s50cgllbeoJ9t7GgSWpV-97" value="" style="group;fontStyle=0" parent="s50cgllbeoJ9t7GgSWpV-96" vertex="1" connectable="0">
          <mxGeometry width="120" height="80" as="geometry" />
        </mxCell>
        <mxCell id="s50cgllbeoJ9t7GgSWpV-91" value="" style="group;fontStyle=0" parent="1" vertex="1" connectable="0">
          <mxGeometry x="720" y="80" width="120" height="80" as="geometry" />
        </mxCell>
        <mxCell id="s50cgllbeoJ9t7GgSWpV-92" value="" style="group;fontStyle=0" parent="s50cgllbeoJ9t7GgSWpV-91" vertex="1" connectable="0">
          <mxGeometry width="120" height="80" as="geometry" />
        </mxCell>
        <mxCell id="s50cgllbeoJ9t7GgSWpV-93" value="" style="group;fontStyle=0" parent="s50cgllbeoJ9t7GgSWpV-92" vertex="1" connectable="0">
          <mxGeometry width="120" height="80" as="geometry" />
        </mxCell>
        <mxCell id="s50cgllbeoJ9t7GgSWpV-94" value="" style="ellipse;whiteSpace=wrap;html=1;fontStyle=0" parent="s50cgllbeoJ9t7GgSWpV-93" vertex="1">
          <mxGeometry width="120" height="80" as="geometry" />
        </mxCell>
        <mxCell id="s50cgllbeoJ9t7GgSWpV-95" value="Title" style="text;html=1;strokeColor=none;fillColor=none;align=center;verticalAlign=middle;whiteSpace=wrap;rounded=0;fontStyle=0" parent="s50cgllbeoJ9t7GgSWpV-93" vertex="1">
          <mxGeometry x="30" y="25" width="60" height="30" as="geometry" />
        </mxCell>
        <mxCell id="s50cgllbeoJ9t7GgSWpV-82" value="" style="group;fontStyle=0" parent="1" vertex="1" connectable="0">
          <mxGeometry x="880" y="80" width="120" height="80" as="geometry" />
        </mxCell>
        <mxCell id="s50cgllbeoJ9t7GgSWpV-83" value="Id" style="ellipse;whiteSpace=wrap;html=1;fontStyle=0" parent="s50cgllbeoJ9t7GgSWpV-82" vertex="1">
          <mxGeometry width="120" height="80" as="geometry" />
        </mxCell>
        <mxCell id="U37n3amN9M7pyMKKjLKV-7" value="" style="endArrow=none;html=1;rounded=0;exitX=0.5;exitY=1;exitDx=0;exitDy=0;fontStyle=0" edge="1" parent="1" source="s50cgllbeoJ9t7GgSWpV-83" target="s50cgllbeoJ9t7GgSWpV-47">
          <mxGeometry width="50" height="50" relative="1" as="geometry">
            <mxPoint x="1081.5" y="197.5" as="sourcePoint" />
            <mxPoint x="790" y="300" as="targetPoint" />
          </mxGeometry>
        </mxCell>
        <mxCell id="s50cgllbeoJ9t7GgSWpV-99" value="Air Date" style="ellipse;whiteSpace=wrap;html=1;fontStyle=0" parent="1" vertex="1">
          <mxGeometry x="1060" y="170" width="120" height="80" as="geometry" />
        </mxCell>
        <mxCell id="s50cgllbeoJ9t7GgSWpV-104" value="Run Time" style="ellipse;whiteSpace=wrap;html=1;fontStyle=0" parent="1" vertex="1">
          <mxGeometry x="1070" y="270" width="120" height="80" as="geometry" />
        </mxCell>
        <mxCell id="U37n3amN9M7pyMKKjLKV-33" value="TV Series" style="rounded=0;whiteSpace=wrap;html=1;" vertex="1" parent="1">
          <mxGeometry x="285" y="590" width="120" height="60" as="geometry" />
        </mxCell>
        <mxCell id="U37n3amN9M7pyMKKjLKV-34" value="" style="endArrow=none;html=1;rounded=0;exitX=0.5;exitY=1;exitDx=0;exitDy=0;entryX=0.5;entryY=0;entryDx=0;entryDy=0;" edge="1" parent="1" source="U37n3amN9M7pyMKKjLKV-36" target="U37n3amN9M7pyMKKjLKV-36">
          <mxGeometry width="50" height="50" relative="1" as="geometry">
            <mxPoint x="295" y="305" as="sourcePoint" />
            <mxPoint x="191" y="229" as="targetPoint" />
          </mxGeometry>
        </mxCell>
        <mxCell id="U37n3amN9M7pyMKKjLKV-35" value="" style="group" vertex="1" connectable="0" parent="1">
          <mxGeometry x="590" y="280" width="141" height="80" as="geometry" />
        </mxCell>
        <mxCell id="U37n3amN9M7pyMKKjLKV-37" value="" style="endArrow=none;html=1;rounded=0;exitX=0.5;exitY=1;exitDx=0;exitDy=0;entryX=0.5;entryY=0;entryDx=0;entryDy=0;endFill=0;startArrow=ERoneToMany;startFill=0;" edge="1" parent="1" source="s50cgllbeoJ9t7GgSWpV-46" target="U37n3amN9M7pyMKKjLKV-36">
          <mxGeometry width="50" height="50" relative="1" as="geometry">
            <mxPoint x="345" y="340" as="sourcePoint" />
            <mxPoint x="253" y="560" as="targetPoint" />
          </mxGeometry>
        </mxCell>
        <mxCell id="U37n3amN9M7pyMKKjLKV-36" value="has" style="rhombus;whiteSpace=wrap;html=1;" vertex="1" parent="1">
          <mxGeometry x="274.5" y="440" width="141" height="80" as="geometry" />
        </mxCell>
        <mxCell id="U37n3amN9M7pyMKKjLKV-38" value="" style="endArrow=ERone;html=1;rounded=0;exitX=0.5;exitY=1;exitDx=0;exitDy=0;endFill=0;" edge="1" parent="1" source="U37n3amN9M7pyMKKjLKV-36" target="U37n3amN9M7pyMKKjLKV-33">
          <mxGeometry width="50" height="50" relative="1" as="geometry">
            <mxPoint x="355" y="350" as="sourcePoint" />
            <mxPoint x="355" y="450" as="targetPoint" />
          </mxGeometry>
        </mxCell>
        <mxCell id="U37n3amN9M7pyMKKjLKV-39" value="Title" style="ellipse;whiteSpace=wrap;html=1;" vertex="1" parent="1">
          <mxGeometry x="40" y="670" width="120" height="80" as="geometry" />
        </mxCell>
        <mxCell id="U37n3amN9M7pyMKKjLKV-40" value="Id" style="ellipse;whiteSpace=wrap;html=1;" vertex="1" parent="1">
          <mxGeometry x="110" y="760" width="120" height="80" as="geometry" />
        </mxCell>
        <mxCell id="U37n3amN9M7pyMKKjLKV-41" value="Sumamry" style="ellipse;whiteSpace=wrap;html=1;" vertex="1" parent="1">
          <mxGeometry x="515" y="680" width="120" height="80" as="geometry" />
        </mxCell>
        <mxCell id="U37n3amN9M7pyMKKjLKV-42" value="Start Date" style="ellipse;whiteSpace=wrap;html=1;" vertex="1" parent="1">
          <mxGeometry x="270" y="770" width="120" height="80" as="geometry" />
        </mxCell>
        <mxCell id="U37n3amN9M7pyMKKjLKV-43" value="End Date" style="ellipse;whiteSpace=wrap;html=1;" vertex="1" parent="1">
          <mxGeometry x="420" y="770" width="120" height="80" as="geometry" />
        </mxCell>
        <mxCell id="U37n3amN9M7pyMKKjLKV-44" value="" style="endArrow=none;html=1;rounded=0;exitX=0;exitY=0.5;exitDx=0;exitDy=0;entryX=1;entryY=0;entryDx=0;entryDy=0;" edge="1" parent="1" source="U37n3amN9M7pyMKKjLKV-33" target="U37n3amN9M7pyMKKjLKV-39">
          <mxGeometry width="50" height="50" relative="1" as="geometry">
            <mxPoint x="295" y="305" as="sourcePoint" />
            <mxPoint x="191" y="229" as="targetPoint" />
          </mxGeometry>
        </mxCell>
        <mxCell id="U37n3amN9M7pyMKKjLKV-45" value="" style="endArrow=none;html=1;rounded=0;exitX=1;exitY=0.5;exitDx=0;exitDy=0;" edge="1" parent="1" source="U37n3amN9M7pyMKKjLKV-33" target="U37n3amN9M7pyMKKjLKV-41">
          <mxGeometry width="50" height="50" relative="1" as="geometry">
            <mxPoint x="295" y="630" as="sourcePoint" />
            <mxPoint x="152" y="692" as="targetPoint" />
          </mxGeometry>
        </mxCell>
        <mxCell id="U37n3amN9M7pyMKKjLKV-46" value="" style="endArrow=none;html=1;rounded=0;exitX=1;exitY=0;exitDx=0;exitDy=0;entryX=0.25;entryY=1;entryDx=0;entryDy=0;" edge="1" parent="1" source="U37n3amN9M7pyMKKjLKV-40" target="U37n3amN9M7pyMKKjLKV-33">
          <mxGeometry width="50" height="50" relative="1" as="geometry">
            <mxPoint x="415" y="630" as="sourcePoint" />
            <mxPoint x="540" y="703" as="targetPoint" />
          </mxGeometry>
        </mxCell>
        <mxCell id="U37n3amN9M7pyMKKjLKV-47" value="" style="endArrow=none;html=1;rounded=0;entryX=0.5;entryY=1;entryDx=0;entryDy=0;" edge="1" parent="1" source="U37n3amN9M7pyMKKjLKV-42" target="U37n3amN9M7pyMKKjLKV-33">
          <mxGeometry width="50" height="50" relative="1" as="geometry">
            <mxPoint x="200" y="780" as="sourcePoint" />
            <mxPoint x="325" y="660" as="targetPoint" />
          </mxGeometry>
        </mxCell>
        <mxCell id="U37n3amN9M7pyMKKjLKV-48" value="" style="endArrow=none;html=1;rounded=0;exitX=0;exitY=0;exitDx=0;exitDy=0;entryX=0.75;entryY=1;entryDx=0;entryDy=0;" edge="1" parent="1" source="U37n3amN9M7pyMKKjLKV-43" target="U37n3amN9M7pyMKKjLKV-33">
          <mxGeometry width="50" height="50" relative="1" as="geometry">
            <mxPoint x="210" y="790" as="sourcePoint" />
            <mxPoint x="335" y="670" as="targetPoint" />
          </mxGeometry>
        </mxCell>
        <mxCell id="U37n3amN9M7pyMKKjLKV-49" value="TV Series Id" style="ellipse;whiteSpace=wrap;html=1;fillColor=#f5f5f5;fontColor=#333333;strokeColor=#666666;" vertex="1" parent="1">
          <mxGeometry x="60" y="284" width="120" height="80" as="geometry" />
        </mxCell>
        <mxCell id="U37n3amN9M7pyMKKjLKV-50" value="" style="endArrow=none;html=1;rounded=0;exitX=0;exitY=0.75;exitDx=0;exitDy=0;" edge="1" parent="1" source="s50cgllbeoJ9t7GgSWpV-46" target="U37n3amN9M7pyMKKjLKV-49">
          <mxGeometry width="50" height="50" relative="1" as="geometry">
            <mxPoint x="295" y="305" as="sourcePoint" />
            <mxPoint x="90" y="350" as="targetPoint" />
          </mxGeometry>
        </mxCell>
        <mxCell id="U37n3amN9M7pyMKKjLKV-51" value="Season Id" style="ellipse;whiteSpace=wrap;html=1;fillColor=#f5f5f5;fontColor=#333333;strokeColor=#666666;" vertex="1" parent="1">
          <mxGeometry x="851" y="400" width="120" height="80" as="geometry" />
        </mxCell>
        <mxCell id="s50cgllbeoJ9t7GgSWpV-46" value="Season" style="rounded=0;whiteSpace=wrap;html=1;" parent="1" vertex="1">
          <mxGeometry x="285" y="280" width="120" height="60" as="geometry" />
        </mxCell>
        <mxCell id="U37n3amN9M7pyMKKjLKV-52" value="" style="endArrow=none;html=1;rounded=0;exitX=0.5;exitY=1;exitDx=0;exitDy=0;fontStyle=0;entryX=0.5;entryY=0;entryDx=0;entryDy=0;" edge="1" parent="1" source="s50cgllbeoJ9t7GgSWpV-47" target="U37n3amN9M7pyMKKjLKV-51">
          <mxGeometry width="50" height="50" relative="1" as="geometry">
            <mxPoint x="950" y="170" as="sourcePoint" />
            <mxPoint x="927" y="290" as="targetPoint" />
          </mxGeometry>
        </mxCell>
      </root>
    </mxGraphModel>
  </diagram>
</mxfile>
